<svg height="512pt" viewBox="-140 0 512 512" width="512pt" xmlns="http://www.w3.org/2000/svg"><path d="m84.523438 272.445312c1.867187 3.636719 4.460937 6.855469 7.621093 9.453126 3.195313 2.65625 6.84375 4.714843 10.769531 6.074218 4.113282 1.441406 8.441407 2.171875 12.796876 2.160156 2.425781-.007812 4.835937.390626 7.128906 1.1875 2.003906.691407 3.871094 1.738282 5.511718 3.089844 1.375 1.117188 2.507813 2.5 3.335938 4.070313 1.445312 2.785156 1.445312 6.097656 0 8.882812-.835938 1.578125-1.976562 2.976563-3.363281 4.101563-1.632813 1.347656-3.492188 2.386718-5.496094 3.074218-4.621094 1.578126-9.636719 1.578126-14.257813 0-2.003906-.691406-3.867187-1.734374-5.503906-3.082031-2.335937-1.980469-5.558594-2.558593-8.4375-1.511719-2.878906 1.046876-4.976562 3.558594-5.496094 6.578126-.515624 3.019531.625 6.085937 2.992188 8.035156 3.199219 2.652344 6.84375 4.710937 10.769531 6.074218 8.292969 2.875 17.308594 2.875 25.601563 0 3.917968-1.363281 7.558594-3.417968 10.75-6.066406 3.183594-2.605468 5.796875-5.835937 7.679687-9.488281 3.914063-7.640625 3.914063-16.691406 0-24.332031-1.867187-3.636719-4.460937-6.855469-7.617187-9.453125-3.195313-2.65625-6.84375-4.714844-10.769532-6.074219-4.121093-1.441406-8.460937-2.167969-12.828124-2.152344-2.421876.011719-4.832032-.390625-7.125-1.1875-2.003907-.691406-3.871094-1.738281-5.511719-3.085937-1.375-1.121094-2.507813-2.503907-3.335938-4.070313-1.445312-2.785156-1.445312-6.101562 0-8.886718.832031-1.578126 1.976563-2.972657 3.363281-4.101563 1.632813-1.34375 3.492188-2.386719 5.496094-3.074219 4.621094-1.578125 9.636719-1.578125 14.257813 0 2.003906.691406 3.867187 1.734375 5.503906 3.082032 2.335937 1.984374 5.558594 2.5625 8.4375 1.511718 2.878906-1.046875 4.976563-3.558594 5.496094-6.578125.515625-3.019531-.625-6.085937-2.992188-8.03125-3.199219-2.65625-6.84375-4.714843-10.769531-6.078125-8.292969-2.863281-17.308594-2.863281-25.601562 0-3.917969 1.363282-7.558594 3.417969-10.75 6.066406-3.183594 2.605469-5.796876 5.835938-7.683594 9.492188-3.910156 7.636719-3.910156 16.691406 0 24.328125zm0 0"/><path d="m.101562 140.621094 1.28125 21.394531v.117187c-.003906.070313-.003906.144532 0 .214844l2.558594 42.800782v.164062l9.21875 153.597656v.105469l2.558594 42.035156v.015625l3.761719 62.78125c1.652343 27.019532 24.019531 48.101563 51.089843 48.152344h90.285157c27.0625-.042969 49.433593-21.113281 51.097656-48.128906l3.761719-62.804688 2.558594-42.035156v-.101562l9.21875-153.601563c0-.058594 0-.109375 0-.160156l2.558593-42.804688c.003907-.070312.003907-.140625 0-.210937v-.113282l1.28125-21.394531c1.8125-29.488281-15.589843-56.789062-43.085937-67.597656 12.359375-12.128906 16.152344-30.527344 9.597656-46.554687-6.550781-16.027344-22.148438-26.49609425-39.464844-26.492188h-85.332031c-17.316406-.00390625-32.914063 10.464844-39.464844 26.492188-6.554687 16.027343-2.761719 34.425781 9.597657 46.554687-27.476563 10.816406-44.859376 38.101563-43.050782 67.574219zm210.792969 55.644531h-190.363281l-1.535156-25.597656h193.433594zm-180.140625 170.667969h169.917969l-1.539063 25.601562h-166.84375zm170.941406-17.066406h-171.957031l-8.183593-136.535157h188.316406zm-6.777343 112.972656c-1.105469 18.011718-16.019531 32.058594-34.0625 32.09375h-90.285157c-18.039062-.035156-32.953124-14.078125-34.0625-32.085938l-3.191406-53.246094h164.792969zm-121.871094-394.574219c-10.8125-.042969-20.425781-6.875-24.03125-17.066406h58.164063v17.066406zm51.199219-17.066406h58.164062c-3.605468 10.191406-13.222656 17.023437-24.03125 17.066406h-34.132812zm-51.199219-34.132813h85.332031c10.808594.046875 20.425782 6.875 24.03125 17.066406h-133.394531c3.605469-10.191406 13.21875-17.019531 24.03125-17.066406zm-4.863281 68.265625h95.058594c14.105468.003907 27.582031 5.828125 37.246093 16.101563 9.664063 10.269531 14.65625 24.078125 13.800781 38.15625l-.835937 14.011718h-195.472656l-.851563-14.011718c-.859375-14.082032 4.136719-27.886719 13.804688-38.160156 9.664062-10.273438 23.144531-16.097657 37.25-16.097657zm0 0"/></svg>